<svg width="300" height="300" viewBox="0 0 300 300" fill="none" xmlns="http://www.w3.org/2000/svg">
<g clip-path="url(#clip0_5248_2510)">
<mask id="mask0_5248_2510" style="mask-type:luminance" maskUnits="userSpaceOnUse" x="0" y="0" width="300" height="300">
<path d="M300 0H0V300H300V0Z" fill="white"/>
</mask>
<g mask="url(#mask0_5248_2510)">
<path d="M166.429 21.3372C167.229 21.402 168.029 21.4538 168.83 21.4972C170.798 21.6475 172.403 21.985 174.236 22.6828C175.649 23.1248 177.052 23.3532 178.511 23.5976C181.804 24.1838 184.935 25.0719 188.104 26.127C188.944 26.4062 189.786 26.6785 190.629 26.9498C194.014 28.0514 197.305 29.3042 200.569 30.7255C200.896 30.8646 201.223 31.0038 201.559 31.1471C207.322 33.6103 212.717 36.6293 218.011 39.968C218.866 40.5071 219.724 41.041 220.582 41.5741C225.01 44.3441 228.928 47.5089 232.728 51.0811C233.814 52.101 234.902 53.0779 236.072 54.0013C240.342 57.7422 241.319 64.7779 241.7 70.1924C242 77.5776 240.086 84.8228 237.695 91.7497C238.501 91.8948 238.501 91.8948 239.322 92.0433C241.793 92.5878 243.959 93.6496 246.23 94.7369C247.225 95.1658 248.221 95.5925 249.217 96.0171C254.862 98.4461 260.581 101.172 265.434 104.979C266.031 105.44 266.031 105.44 266.64 105.911C271.892 110.074 274.313 113.779 275.675 120.341C275.785 120.846 275.785 120.846 275.896 121.361C276.92 126.176 277.544 130.882 277.569 135.811C277.573 136.242 277.577 136.673 277.582 137.117C277.502 144.09 274.719 149.382 270.128 154.481C269.841 154.8 269.841 154.8 269.548 155.126C262.357 163.009 250.405 173.095 239.254 173.771C228.5 173.907 218.666 168.258 210.384 161.735C210.364 162.015 210.345 162.295 210.325 162.582C210.041 166.385 209.392 171.008 206.837 173.978C205.745 174.917 204.409 175.818 204.409 175.818L203.343 176.671C202.6 177.114 202.065 177.548 201.316 177.978C200.9 178.221 200.484 178.463 200.055 178.713C198.862 179.232 198.862 179.232 197.94 179.195C196.94 178.698 196.475 178.114 195.794 177.231C192.86 173.747 189.247 171.833 184.706 171.431C179.55 171.285 174.957 172.64 171.105 176.197C167.675 179.919 166.228 184.17 166.314 189.209C166.483 190.849 166.93 192.369 167.43 193.936C167.718 195.054 167.759 196.006 167.71 197.155C167.283 197.368 167.283 197.368 166.856 197.582L166.003 198.009L164.722 198.862C164.722 198.862 163.808 199.765 163.869 199.716C163.438 200.068 163.006 200.42 162.562 200.782C157.014 205.448 154.379 213.029 153.712 220.061C153.606 221.837 153.581 223.608 153.564 225.387C153.559 225.736 153.555 226.085 153.55 226.445C153.528 228.22 153.524 229.991 153.549 231.766C153.565 237.298 153.565 237.298 151.874 239.371C150.52 240.688 148.956 241.268 147.226 241.963C147.22 241.591 147.22 241.591 147.213 241.211C147.166 238.615 147.118 236.019 147.067 233.423C147.049 232.455 147.031 231.488 147.014 230.521C146.989 229.125 146.962 227.73 146.934 226.335C146.927 225.907 146.92 225.479 146.913 225.038C146.731 216.318 144.723 207.286 138.264 200.996C136.42 199.419 135.491 198.222 133.57 197.155L131.863 196.088C132.077 196.188 130.252 195.286 129.943 195.235C129.943 195.235 128.881 194.969 127.622 194.435C126.983 194.166 126.983 194.166 126.331 193.891C125.903 193.701 125.476 193.511 125.035 193.314C124.58 193.146 124.126 192.978 123.657 192.804C122.317 191.932 122.019 191.289 121.642 189.755C121.583 189.451 121.523 189.147 121.461 188.834C121.394 188.514 121.326 188.196 121.256 187.867C120.034 181.512 120.425 174.712 122.475 168.563L123.115 167.283C123.141 167.165 123.086 167.346 123.115 167.283C124.234 162.277 130.432 157.779 134.855 154.914C138.342 152.768 142.064 151.457 145.946 150.213C146.363 150.07 146.781 149.926 147.211 149.778C149.583 148.998 151.972 148.626 154.442 148.28C155.546 148.112 156.599 147.896 157.681 147.627C160.14 147.053 162.633 146.928 165.149 146.799C165.545 146.776 165.94 146.753 166.348 146.73C170.154 146.602 172.709 148.221 175.818 150.213C179.425 152.462 182.699 152.676 186.913 152.347C190.164 151.547 193.076 149.41 194.839 146.571C196.669 143.012 197.41 139.749 196.195 135.837C195.466 133.881 194.512 132.231 193.047 130.722C191.214 128.807 191.214 128.807 191.047 127.009C191.834 124.835 193.111 123.375 194.594 121.622C204.479 109.583 214.362 96.1716 218.919 81.0811C219.201 80.2268 219.485 79.3733 219.772 78.5207C219.544 78.644 219.317 78.7669 219.082 78.8941C215.923 80.4679 213.165 80.7073 209.744 79.8274C207.214 78.8808 205.458 76.9592 203.556 75.1067C195.735 67.8077 185.879 59.4679 174.629 59.6322C171.616 59.8776 169.989 61.1821 167.923 63.318C163.339 68.7359 159.437 76.5073 158.748 83.6416C160.571 82.1988 162.042 80.7602 163.469 78.921C166.266 75.3312 169.344 73.6016 173.658 72.2796C173.946 72.187 174.235 72.0948 174.533 71.9996C181.835 69.7311 189.658 70.4634 196.553 73.69C197.796 74.3954 198.972 75.1405 200.142 75.9602C200.455 76.1766 200.768 76.3925 201.091 76.6153C201.936 77.2259 202.747 77.8639 203.556 78.5207C203.845 78.743 204.135 78.9653 204.433 79.1941C207.106 81.3525 209.109 83.7018 209.807 87.137C210.104 91.6439 208.304 94.8163 206.116 98.5776C205.742 99.2373 205.368 99.8975 204.995 100.558C204.017 102.274 203.018 103.977 202.013 105.677C201.436 106.662 200.871 107.654 200.309 108.648C198.259 112.253 196.133 115.565 193.314 118.634C193.115 118.852 192.916 119.069 192.71 119.293C185.483 127.088 175.046 129.766 164.584 130.305C147.788 130.777 131.779 124.612 117.354 116.501C117.085 116.349 116.815 116.198 116.538 116.042C111.168 112.984 111.168 112.984 109.673 110.526C107.433 100.64 110.897 90.8352 113.967 81.5612C114.078 81.2241 114.19 80.887 114.305 80.54C114.629 79.5645 114.958 78.5907 115.289 77.6173C115.385 77.3284 115.481 77.0399 115.581 76.7424C116.2 74.9471 116.95 73.2735 117.827 71.5887C118.502 70.2594 118.996 68.8626 119.518 67.4689C119.518 67.4689 121.42 63.9965 121.42 63.7981C121.688 63.1708 121.187 64.4395 121.42 63.7981C122.368 61.3601 123.691 59.1824 125.035 56.9433C125.279 56.5353 125.524 56.1269 125.775 55.7062C130.999 47.068 137.273 39.2974 144.239 32.0057C144.54 31.6872 144.84 31.3687 145.151 31.0406C147.052 29.0777 149.105 27.3535 151.24 25.6496C152.154 24.9078 153.009 24.141 153.867 23.3375C157.541 20.2285 161.913 19.8316 166.429 21.3372Z" fill="url(#paint0_linear_5248_2510)"/>
<path d="M119.646 48.2223C123.181 51.0252 123.181 51.0252 123.913 52.4898C124.117 55.1095 123.696 56.7862 122.398 59.0842C122.072 59.6919 121.746 60.3 121.42 60.9077C121.248 61.2222 121.076 61.5371 120.898 61.8615C117.197 68.6522 114.103 75.4844 111.538 82.7885C111.316 83.4175 111.316 83.4175 111.091 84.0589C109.103 89.7939 107.566 95.6066 106.417 101.565C106.342 101.924 106.267 102.284 106.19 102.654C105.156 107.809 105.58 111.331 108.477 115.788C109.947 117.882 111.566 119.53 113.565 121.116C113.976 121.444 114.388 121.772 114.812 122.111C115.14 122.372 115.467 122.633 115.805 122.902C116.232 123.329 115.965 123.329 116.019 124.609C115.965 125.889 116.019 125.463 115.805 126.316L115.165 128.877C114.911 130.001 114.098 131.437 114.098 131.437C113.66 132.339 113.235 133.247 112.818 134.158C107.993 144.187 98.6942 151.462 88.4921 155.478C87.6403 155.761 87.6403 155.761 87.6403 155.761L86.3601 156.402C80.4394 158.223 74.0007 157.554 68.0101 156.188L66.7299 155.761C66.8784 155.811 65.1599 155.313 65.2914 155.335C65.3199 155.339 63.068 154.939 61.4225 154.294C60.983 154.125 60.983 154.125 60.5345 153.952C55.2066 151.815 50.5269 148.92 46.2463 145.093C45.852 144.755 45.4576 144.416 45.051 144.068C42.2815 141.643 39.9361 139.06 37.7114 136.131C37.3792 135.704 37.0469 135.277 36.7046 134.836C34.1287 131.434 32.0841 127.811 30.1145 124.028C28.8211 121.564 28.8049 121.622 27.738 119.488C26.4263 117.873 26.3614 116.4 26.4578 114.367C26.9683 111.093 27.4043 108.433 28.783 105.431C29.7022 103.379 30.5393 101.291 31.3938 99.2113C32.113 97.4864 32.8814 95.9014 33.8707 94.3105C34.1744 93.4639 34.8906 92.6113 35.151 91.7501L36.0361 90.1315C36.9015 87.5462 38.2998 85.366 39.7651 83.0821C40.048 82.6361 40.3309 82.1902 40.6224 81.731C46.9922 71.7709 53.8589 62.5485 62.9409 54.8787C63.9232 54.0431 64.871 53.173 65.8231 52.3033C80.8922 38.7914 102.379 36.5766 119.646 48.2223Z" fill="url(#paint1_linear_5248_2510)"/>
<path d="M57.9618 210.187C58.5665 210.391 59.1716 210.595 59.7767 210.798C61.3838 211.339 62.9875 211.89 64.5908 212.443C66.2632 213.017 67.939 213.583 69.6144 214.149C72.8722 215.253 76.1265 216.366 79.38 217.482C81.6494 218.26 83.9205 219.034 86.1921 219.807C88.2567 220.51 90.3212 221.215 92.3837 221.926C96.2419 223.255 100.111 224.547 103.99 225.813C104.926 226.12 105.862 226.427 106.798 226.734C108.591 227.322 110.386 227.904 112.183 228.482C119.383 230.826 125.815 233.898 130.583 240.256C131.223 241.109 131.223 241.109 131.223 241.109C131.223 241.109 131.437 241.323 131.863 241.963C132.518 242.911 132.518 242.911 133.17 244.123C133.386 244.515 133.603 244.908 133.826 245.312C135.061 248.089 135.443 250.754 135.437 253.778C135.438 254.11 135.438 254.443 135.438 254.785C135.38 257.861 134.648 260.418 133.57 263.3C133.357 263.87 133.144 264.58 133.144 265.007C144.452 267.354 156.401 267.567 167.283 265.007C167.009 263.957 166.733 262.908 166.456 261.859C166.378 261.561 166.301 261.263 166.22 260.956C165.83 259.459 166.009 259.101 165.363 257.539C164.937 249.539 164.723 249.753 166.43 246.23C166.565 245.907 166.7 245.583 166.84 245.25C168.123 242.391 169.947 240.036 171.889 237.603C172.617 236.628 172.831 236.415 173.684 235.135C173.898 234.921 174.098 234.72 174.111 234.708C174.123 234.696 174.751 234.068 174.964 233.855C175.285 233.534 176.625 232.597 176.671 232.574C177.148 232.336 176.628 232.596 176.671 232.574C177.525 232.148 184.448 229.686 188.428 228.458C190.677 227.759 192.901 227.009 195.119 226.217C199.307 224.737 203.518 223.329 207.732 221.927C208.078 221.812 208.424 221.697 208.78 221.579C211.676 220.615 214.573 219.653 217.47 218.692C219.62 217.978 221.77 217.263 223.919 216.548C224.985 216.194 226.051 215.841 227.117 215.488C230.635 214.322 234.139 213.126 237.627 211.875C238.635 211.516 239.644 211.158 240.652 210.801C241.581 210.467 242.507 210.125 243.433 209.782C246.916 208.525 250.171 207.758 253.912 208.25C255.432 208.97 255.432 208.97 256.472 209.957C256.798 210.265 257.123 210.573 257.459 210.89C258.567 212.738 258.851 214.787 258.398 216.903C258.326 217.146 258.253 217.388 258.179 217.638C257.966 218.065 257.966 218.065 257.966 218.065C257.966 218.065 257.966 218.065 257.752 218.492C256.411 221.117 253.032 222.186 250.372 223.069C249.983 223.192 249.594 223.315 249.192 223.443C248.572 223.646 248.572 223.646 247.938 223.855C246.597 224.294 245.254 224.727 243.91 225.16C242.52 225.613 241.132 226.069 239.743 226.524C238.816 226.828 237.89 227.131 236.963 227.433C232.705 228.824 228.468 230.275 224.238 231.747C221.624 232.657 219.023 233.531 216.358 234.281C215.206 234.674 214.062 235.092 212.918 235.508C210.157 236.498 207.384 237.367 204.556 238.152C201.088 239.116 197.678 240.152 194.356 241.544C193.657 241.825 192.949 242.082 192.232 242.314C189.739 243.126 187.497 244.204 185.233 245.51C184.96 245.661 184.688 245.813 184.406 245.968C182.136 247.326 181.086 248.867 180.199 251.388C179.698 254.997 179.907 258.194 181.152 261.593C181.293 262.015 182.219 262.446 182.646 262.873C182.927 262.873 182.356 262.873 182.646 262.873C184.051 264.078 184.678 264.808 184.978 266.654C185.06 269.286 184.93 271.107 183.072 273.115C181.152 274.608 181.152 274.608 180.085 275.035L179.659 275.249C179.659 275.249 176.141 276.254 174.381 276.54C173.787 276.637 173.192 276.735 172.597 276.833C170.543 277.171 168.487 277.496 166.43 277.809C165.608 277.936 165.608 277.936 164.771 278.065C160.154 278.715 155.591 278.815 150.933 278.796C150.542 278.795 150.15 278.794 149.746 278.793C139.062 278.758 127.74 278.246 117.781 273.968C115.647 271.835 115.647 271.835 115.22 270.554C115.511 270.554 114.939 270.554 115.22 270.554C114.952 268.127 114.917 266.387 116.447 264.393C116.888 263.883 117.332 263.376 117.781 262.873C118.208 262.446 118.208 262.446 118.634 262.02L119.061 261.593C119.061 261.593 119.611 260.818 119.674 260.419C119.915 259.459 120.101 258.392 120.135 258.242C120.832 255.149 120.618 251.789 119.311 248.897C117.963 246.985 116.604 246.033 114.58 244.95C114.282 244.758 112.02 243.67 112.02 243.67C112.02 243.67 107.008 241.841 103.818 240.958C102.195 240.498 100.587 239.99 98.9773 239.482C98.6803 239.389 98.3828 239.295 98.0764 239.199C97.3898 238.983 96.7032 238.766 96.017 238.549L94.9501 238.122L93.6699 237.695C93.6699 237.695 91.15 236.947 89.469 236.322C87.314 235.535 85.1551 234.77 82.9779 234.046C82.6975 233.953 82.4167 233.86 82.1278 233.763C81.5368 233.567 80.9457 233.371 80.3547 233.175C79.3941 232.857 78.4339 232.537 77.4742 232.218C73.9211 231.035 70.3668 229.857 66.8112 228.683C64.9565 228.07 63.1028 227.456 61.249 226.841C60.3404 226.54 59.4319 226.24 58.523 225.941C57.2385 225.518 55.9548 225.092 54.6712 224.666C54.1019 224.48 54.1019 224.48 53.5211 224.29C51.1151 223.488 48.8163 222.542 46.5148 221.479C46.1235 221.31 45.7326 221.14 45.3298 220.966C42.9469 219.811 42.9469 219.811 42.2291 218.585C41.462 215.99 41.7209 213.213 42.8606 210.784C43.0808 210.511 43.301 210.238 43.5276 209.957C43.6267 209.834 43.9544 209.53 43.9544 209.53C43.9544 209.53 44.1678 209.317 44.3811 209.103C48.9733 207.035 53.455 208.616 57.9618 210.187Z" fill="url(#paint2_linear_5248_2510)"/>
<path d="M174.964 2.56049C175.395 2.64156 175.827 2.72263 176.271 2.80616C177.686 3.07526 179.099 3.34975 180.512 3.62735C180.95 3.71333 181.388 3.79932 181.84 3.88791C186.392 4.80661 190.82 6.09601 195.261 7.44136C195.672 7.56375 196.084 7.68614 196.507 7.81224C199.206 8.62937 201.804 9.59359 204.41 10.6686C204.93 10.8688 205.45 11.0691 205.986 11.2754C209.694 12.7112 213.239 14.3597 216.767 16.1917C217.631 16.6394 218.499 17.0798 219.367 17.5198C229.526 22.7225 238.975 29.1194 247.511 36.6999C247.811 36.9637 248.111 37.2274 248.421 37.4992C251.253 40.0103 253.954 42.6374 256.629 45.3128C257.351 46.0332 258.075 46.7501 258.8 47.4666C261.63 50.2823 264.258 53.1756 266.714 56.33C266.94 56.6164 267.167 56.9032 267.4 57.198C278.426 71.2716 286.739 87.1729 292.319 104.125C292.446 104.508 292.573 104.891 292.704 105.285C296.756 117.608 299.123 130.659 299.263 143.647C299.268 144.107 299.274 144.566 299.279 145.04C299.36 153.756 299.358 162.393 298.186 171.044C298.143 171.37 298.099 171.697 298.054 172.034C297.135 178.707 295.505 185.189 293.606 191.645C293.355 192.501 293.107 193.357 292.86 194.214C292.065 196.945 291.232 199.631 290.185 202.276C290.009 202.747 289.834 203.218 289.653 203.703C288.789 205.991 287.923 208.236 286.767 210.394C286.416 211.095 286.103 211.816 285.801 212.54C280.998 223.847 273.994 234.556 266.287 244.097C266.111 244.317 265.935 244.538 265.754 244.765C262.355 248.983 258.529 252.798 254.712 256.632C254.455 256.891 254.199 257.15 253.935 257.416C250.795 260.578 247.614 263.543 244.097 266.287C243.797 266.527 243.498 266.766 243.19 267.012C230.867 276.839 216.751 285.001 201.849 290.185C201.295 290.392 200.741 290.601 200.187 290.812C193.15 293.464 186.017 295.624 178.59 296.836C177.392 297.035 176.197 297.245 175.001 297.456C174.566 297.533 174.132 297.61 173.684 297.689C172.833 297.839 171.982 297.99 171.131 298.141C157.243 300.569 142.372 300.265 128.449 298.293C127.961 298.224 127.473 298.156 126.969 298.085C92.5296 293.033 58.4977 274.512 36.273 247.511C35.8785 247.047 35.484 246.583 35.0894 246.119C31.1396 241.419 27.7005 236.416 24.3242 231.294C24.1257 230.998 23.9273 230.701 23.7228 230.395C17.8652 221.613 13.5312 212.124 9.86693 202.263C9.43123 201.11 8.97073 199.971 8.49969 198.832C7.55864 196.497 6.85195 194.107 6.16097 191.687C6.03073 191.235 5.90049 190.783 5.76632 190.317C4.87904 187.207 4.07448 184.105 3.4138 180.939C3.31502 180.469 3.21624 180 3.11447 179.516C-0.507404 161.897 -0.810648 143.631 2.13357 125.889C2.21348 125.393 2.29338 124.897 2.3757 124.387C6.42688 99.7993 17.1838 76.107 32.8591 56.7568C33.1467 56.3877 33.4344 56.0185 33.7308 55.6383C39.1222 48.8309 45.4066 42.284 52.0625 36.6999C52.5955 36.2378 52.5955 36.2378 53.1391 35.7664C67.6006 23.405 84.4996 14.308 102.418 8.10814C102.79 7.97892 103.161 7.84975 103.545 7.71661C126.177 -0.0486255 151.453 -1.86427 174.964 2.56049ZM100.045 11.1495C99.0276 11.5136 98.0081 11.8695 96.9869 12.2222C96.666 12.3336 96.3447 12.4451 96.0135 12.5599C95.4204 12.7656 94.8263 12.9704 94.2323 13.174C80.7396 17.8885 67.6945 26.2894 56.7566 35.4197C56.3299 35.7747 55.9036 36.1298 55.464 36.4956C51.9635 39.4378 48.6588 42.5297 45.4373 45.7741C44.6704 46.5457 43.8989 47.3126 43.1269 48.0794C40.2205 50.9821 37.5211 53.9416 34.9928 57.1835C34.634 57.6325 34.634 57.6325 34.2679 58.0904C24.6027 70.2098 17.1576 83.7478 11.5219 98.1508C11.32 98.6629 11.1181 99.175 10.9101 99.7029C7.36682 109.148 4.88284 119.279 3.52049 129.276C3.45174 129.779 3.45174 129.779 3.38161 130.293C1.64592 143.461 1.75926 157.303 3.68197 170.448C3.82559 171.446 3.94687 172.443 4.05558 173.446C4.49638 177.318 5.3642 181.031 6.40102 184.78C6.55025 185.328 6.55025 185.328 6.70251 185.887C12.8469 208.309 22.819 229.244 38.4067 246.657C38.6804 246.968 38.9542 247.278 39.2362 247.598C41.6258 250.289 44.111 252.868 46.6552 255.411C47.3137 256.071 47.9687 256.733 48.6233 257.397C51.337 260.126 54.1518 262.629 57.1834 265.007C57.4834 265.247 57.7838 265.488 58.0932 265.735C70.5831 275.688 84.8956 284.02 100.103 288.984C101.136 289.331 102.156 289.704 103.176 290.087C111.138 293.052 119.442 294.881 127.854 296.014C128.909 296.164 129.957 296.34 131.006 296.52C142.685 298.381 155.579 298.252 167.283 296.586C167.691 296.528 167.691 296.528 168.108 296.47C176.683 295.251 185.059 293.715 193.314 291.038C193.814 290.878 194.314 290.717 194.829 290.551C201.474 288.392 207.958 286.03 214.225 282.93C214.583 282.754 214.941 282.577 215.309 282.396C227.058 276.551 237.996 269.317 247.689 260.456C248.588 259.643 249.497 258.848 250.415 258.056C252.207 256.49 253.91 254.849 255.592 253.165C255.89 252.867 256.187 252.569 256.495 252.262C258.48 250.256 260.31 248.202 262.053 245.98C262.822 245.014 263.631 244.119 264.474 243.216C280.79 224.961 291.016 199.652 295.306 175.818C295.365 175.489 295.424 175.161 295.485 174.822C300.126 148.333 296.767 121.947 287.624 96.8706C287.402 96.251 287.402 96.251 287.175 95.6185C283.928 86.6655 279.395 78.1438 274.031 70.2854C273.323 69.2343 272.661 68.1564 271.995 67.0788C270.375 64.5269 268.563 62.1329 266.714 59.744C266.437 59.3838 266.16 59.0232 265.875 58.6519C263.935 56.1726 261.85 53.8566 259.709 51.5527C258.831 50.5993 257.979 49.6357 257.139 48.6487C254.068 45.1131 250.662 41.8495 247.084 38.8336C246.481 38.3096 246.481 38.3096 245.867 37.7751C238.106 31.054 229.58 25.4767 220.626 20.4837C220.281 20.2894 219.937 20.0952 219.583 19.895C209.955 14.495 199.599 10.8301 189.047 7.6814C188.541 7.52491 188.541 7.52491 188.025 7.36531C159.844 -1.30337 127.47 1.26141 100.045 11.1495Z" fill="#369EA5"/>
<path d="M99.8574 192.301C100.372 192.302 100.372 192.302 100.896 192.302C113.634 192.341 125.648 194.615 135.357 203.37C143.197 211.569 143.546 222.862 143.465 233.509C143.462 234.325 143.458 235.141 143.455 235.957C143.433 240.103 143.395 244.249 143.225 248.391C143.206 248.903 143.206 248.903 143.185 249.424C143.059 251.829 142.611 254.122 142.105 256.473C141.97 257.175 141.836 257.877 141.705 258.58C141.447 259.957 141.145 260.769 139.971 261.594C139.038 261.46 139.038 261.46 138.264 261.167C138.24 260.349 138.224 259.531 138.211 258.713C138.201 258.258 138.191 257.802 138.181 257.333C138.204 255.963 138.429 254.689 138.689 253.345C139.303 249.843 139.229 246.36 139.198 242.817C139.194 242.097 139.19 241.378 139.186 240.659C139.173 238.533 139.148 236.408 139.118 234.282C139.111 233.82 139.111 233.82 139.105 233.348C138.924 218.678 139.349 218.848 132.077 206.544L131.01 205.264C130.779 205.156 129.753 204.094 129.516 203.983C128.449 203.13 126.822 202.357 126.822 202.357C118.803 197.327 111.409 196.65 102.205 196.729C101.794 196.73 97.0836 196.729 96.8702 196.729C90.4644 196.762 86.1202 197.312 79.8005 198.436C79.3994 198.504 78.9983 198.573 78.5852 198.644C71.153 199.944 63.8271 201.799 56.5047 203.603C56.1978 203.678 55.8906 203.753 55.5739 203.831C53.9912 204.218 52.489 204.623 52.489 204.623C52.489 204.623 50.9954 204.917 49.5018 204.837C48.6483 203.983 48.6483 203.983 48.4614 202.943C48.6483 201.85 48.6483 201.85 49.5219 201.203C50.995 200.462 52.4766 200.003 54.0629 199.583C54.3927 199.494 54.7226 199.404 55.0627 199.313C62.8828 197.238 70.7455 195.562 78.7414 194.331C79.6392 194.193 80.5358 194.05 81.4324 193.905C82.7365 193.696 84.0415 193.503 85.3482 193.315C85.8347 193.243 86.3207 193.171 86.8217 193.097C91.1796 192.499 95.4607 192.29 99.8574 192.301Z" fill="url(#paint3_linear_5248_2510)"/>
<path d="M197.688 192.408C198.171 192.409 198.653 192.411 199.15 192.412C208.086 192.466 216.619 193.086 225.36 194.998C226.7 195.291 228.04 195.565 229.387 195.819C233.719 196.635 238.006 197.607 242.286 198.661C242.902 198.812 243.518 198.962 244.135 199.111C245.007 199.323 245.878 199.54 246.749 199.758C247.255 199.883 247.762 200.009 248.284 200.138C249.626 200.564 250.654 201.002 251.778 201.85C252.205 203.13 252.205 203.343 251.778 204.41C249.742 205.428 247.405 204.781 245.323 204.17C241.958 203.216 238.563 202.397 235.161 201.583C234.1 201.329 233.038 201.074 231.976 200.82C231.485 200.702 230.994 200.585 230.488 200.464C229.41 200.203 228.336 199.931 227.262 199.653C225.779 199.297 224.325 199.058 222.813 198.863C221.084 198.63 219.392 198.37 217.692 197.983C215.477 197.509 211.664 197.156 211.664 197.156C211.664 197.156 207.61 196.741 207.397 196.729C190.346 195.757 182.432 197.156 175.391 201.423C175.056 201.545 174.294 202.095 173.949 202.221C169.1 204.31 165.733 209.614 163.762 214.252C162.447 217.582 161.968 220.911 161.735 224.467C161.712 224.794 161.688 225.121 161.664 225.458C161.294 230.899 161.258 236.354 161.234 241.806C161.23 242.543 161.226 243.281 161.219 244.018C161.193 247.642 161.2 251.102 161.971 254.661C162.24 256.01 162.245 257.315 162.215 258.687C162.208 259.159 162.2 259.632 162.192 260.118C162.177 260.637 162.177 260.637 162.162 261.167C161.458 261.308 160.754 261.449 160.028 261.594C159.157 260.287 158.874 259.371 158.508 257.86C158.349 257.216 158.349 257.216 158.186 256.559C156.637 249.3 156.994 241.575 156.966 234.182C156.963 233.424 156.958 232.666 156.952 231.909C156.874 220.989 158.029 210.919 165.869 202.57C174.39 194.592 186.389 192.359 197.688 192.408Z" fill="url(#paint4_linear_5248_2510)"/>
<path d="M201.485 201.73C202.584 201.743 203.683 201.747 204.782 201.75C205.486 201.753 206.191 201.758 206.895 201.763C207.221 201.765 207.547 201.766 207.882 201.768C209.35 201.788 211.664 202.063 211.664 202.063C212.695 202.128 216.393 202.446 217.425 202.49C223.613 203.343 230.228 205.05 235.562 206.544C235.775 207.61 235.775 208.677 235.562 209.531C232.962 210.398 230.568 209.865 227.987 209.184C217.826 206.667 200.996 203.13 191.181 206.544C190.754 206.544 188.193 207.397 188.193 207.397C185.962 207.817 183.954 208.841 181.792 209.531L181.152 209.958L180.512 210.384C180.512 210.384 179.166 211.281 178.378 212.091C177.836 212.527 177.178 213.398 177.178 213.398C172.648 217.345 171.424 222.635 170.857 228.361C170.754 229.34 170.651 230.319 170.547 231.298C170.504 231.728 170.461 232.158 170.416 232.6C170.267 233.881 170.066 235.146 169.843 236.416C168.403 236.682 168.403 236.682 166.856 236.842C166.003 235.989 166.003 235.989 165.968 234.293C166 233.569 166.039 232.845 166.083 232.121C166.106 231.739 166.128 231.356 166.152 230.962C166.757 221.976 168.733 215.371 175.551 209.012C178.113 206.807 180.758 205.539 183.926 204.41C184.24 204.288 184.555 204.167 184.879 204.042C190.328 202.044 195.746 201.658 201.485 201.73Z" fill="url(#paint5_linear_5248_2510)"/>
<path d="M97.1293 201.701C97.8322 201.694 98.5346 201.684 99.237 201.672C106.401 201.56 112.907 202.831 119.488 205.69C119.786 205.801 120.084 205.911 120.391 206.025C125.678 208.209 129.879 213.613 132.073 218.684C133.198 221.623 133.945 224.313 133.997 227.454C134.006 227.949 134.006 227.949 134.015 228.454C134.044 230.366 134.059 232.277 134.054 234.189C134.053 234.515 134.053 234.841 134.052 235.177C133.997 235.989 133.997 235.989 133.57 236.843C132.557 236.896 132.557 236.896 131.436 236.843C130.361 235.768 130.42 235.26 130.28 233.767C130.233 233.316 130.187 232.866 130.14 232.402C130.093 231.922 130.045 231.443 129.996 230.948C129.136 223.167 127.4 216.904 121.195 211.665C118.317 209.543 115.243 208.319 111.806 207.397C111.332 207.269 110.857 207.141 110.368 207.009C98.6737 204.348 83.6912 205.76 72.2524 209.158C69.8212 209.83 67.8031 210.174 65.2913 209.958C64.8646 209.531 64.8646 209.531 64.7314 208.304C64.8646 206.971 64.8646 206.971 65.6063 206.275C66.7849 205.904 68.564 205.489 69.6343 205.049C70.0103 204.982 69.2468 205.117 69.6343 205.049C70.0316 204.979 70.4293 204.909 70.839 204.837C71.6566 204.667 72.4734 204.493 73.2893 204.317C81.2967 202.627 88.9546 201.779 97.1293 201.701Z" fill="url(#paint6_linear_5248_2510)"/>
<path d="M134.851 130.157C137.137 131.655 138.778 133.475 139.545 136.131C139.949 139.323 139.613 141.953 137.685 144.613C136.053 146.631 134.45 147.971 131.863 148.507C129.154 148.746 126.542 148.696 124.182 147.227C121.589 144.915 119.915 142.296 119.701 138.772C119.805 135.932 120.831 133.479 122.875 131.484C126.589 128.586 130.591 127.853 134.851 130.157Z" fill="url(#paint7_linear_5248_2510)"/>
</g>
</g>
<defs>
<linearGradient id="paint0_linear_5248_2510" x1="152.005" y1="20.4883" x2="152.005" y2="241.963" gradientUnits="userSpaceOnUse">
<stop stop-color="#00E5E2"/>
<stop offset="1" stop-color="#20FFB1"/>
</linearGradient>
<linearGradient id="paint1_linear_5248_2510" x1="152.005" y1="20.4886" x2="152.005" y2="241.963" gradientUnits="userSpaceOnUse">
<stop stop-color="#00E5E2"/>
<stop offset="1" stop-color="#20FFB1"/>
</linearGradient>
<linearGradient id="paint2_linear_5248_2510" x1="150.213" y1="212.091" x2="150.213" y2="297.226" gradientUnits="userSpaceOnUse">
<stop stop-color="#66B4B6"/>
<stop offset="1" stop-color="#1A7799"/>
</linearGradient>
<linearGradient id="paint3_linear_5248_2510" x1="95.9677" y1="192.301" x2="95.9677" y2="261.594" gradientUnits="userSpaceOnUse">
<stop stop-color="#B9E3D1"/>
<stop offset="1" stop-color="#A9C7C6"/>
</linearGradient>
<linearGradient id="paint4_linear_5248_2510" x1="204.523" y1="192.407" x2="204.523" y2="261.594" gradientUnits="userSpaceOnUse">
<stop stop-color="#B9E3D1"/>
<stop offset="1" stop-color="#A9C7C6"/>
</linearGradient>
<linearGradient id="paint5_linear_5248_2510" x1="200.845" y1="201.721" x2="200.845" y2="236.842" gradientUnits="userSpaceOnUse">
<stop stop-color="#B9E3D1"/>
<stop offset="1" stop-color="#A9C7C6"/>
</linearGradient>
<linearGradient id="paint6_linear_5248_2510" x1="99.3928" y1="201.665" x2="99.3928" y2="236.883" gradientUnits="userSpaceOnUse">
<stop stop-color="#B9E3D1"/>
<stop offset="1" stop-color="#A9C7C6"/>
</linearGradient>
<linearGradient id="paint7_linear_5248_2510" x1="129.699" y1="128.794" x2="129.699" y2="148.615" gradientUnits="userSpaceOnUse">
<stop stop-color="#F36526"/>
<stop offset="1" stop-color="#FFBE64"/>
</linearGradient>
<clipPath id="clip0_5248_2510">
<rect width="300" height="300" fill="white"/>
</clipPath>
</defs>
</svg>
